<?xml version="1.0" encoding="utf-8"?>
<svg version="1.1" xmlns:cc="http://creativecommons.org/ns#" xmlns:dc="http://purl.org/dc/elements/1.1/" xmlns:rdf="http://www.w3.org/1999/02/22-rdf-syntax-ns#" xmlns="http://www.w3.org/2000/svg" xmlns:xlink="http://www.w3.org/1999/xlink" x="0px" y="0px" viewBox="0 0 1024 768" xml:space="preserve">
<defs>
  <filter id="filter">
	<!--We create a heightmap by blurring the source: -->
	<feGaussianBlur stdDeviation="5" in="SourceAlpha" result="BLUR"/>

	<!-- We then define a lighting effect with a point light that is positioned at virtual 3D coordinates x: 40px, y: -30px, z: 200px: -->

	<feSpecularLighting surfaceScale="6" specularConstant="1" specularExponent="30" lighting-color="#white" in="BLUR" result="SPECULAR">
		<fePointLight x="40" y="-30" z="200">
		<animate attributeName="x" values="40;960;0" dur="5s" calcMode="spline"
						keySplines=".73 .18 .24 .87;
									.73 .18 .24 .87;" repeatCount="1" /> 
		</fePointLight>
	</feSpecularLighting>

	<!-- We cut off the parts that overlap the source graphic… -->

	<feComposite operator="in" in="SPECULAR" in2="SourceAlpha" result="COMPOSITE"/>

	<!-- … and then merge source graphic and lighting effect: -->

	<feMerge>
		<feMergeNode in="SourceGraphic" />
		<feMergeNode in="COMPOSITE"/>
	</feMerge>

  </filter>
</defs>
<g filter="url(#filter)">

 
 <g id="logo-group" fill="#b9af9a" stroke-width="0" stroke-miterlimit="2" transform="translate(-336.26 -253.03) scale(1.6568)">
  <path id="path169350" style="font-variant-ligatures:none" d="m357.48 481.26q1.0078-0.28219 1.6528-0.5039 0.645-0.24188 1.0078-0.645 0.38296-0.40313 0.52406-1.0683 0.14109-0.68531 0.14109-1.8342v-22.535l-3.3258-1.0884v-1.5923h4.0917q0.84656 0 1.8342-0.0403t1.9551-0.0806q0.9675-0.0403 1.8544-0.0806 0.88687-0.0403 1.552-0.0403 1.2094 0 2.4188 0.12094 1.2295 0.10079 2.3583 0.38297 1.1288 0.26203 2.1164 0.74578 0.98764 0.46359 1.7133 1.1892 0.72562 0.72562 1.1489 1.7334t0.42328 2.3583q0 1.6931-0.44344 3.0234-0.44344 1.3102-1.1086 2.3381-0.645 1.0078-1.4109 1.7334-0.76594 0.70547-1.4311 1.1489 1.3505 0.38297 2.58 1.028 1.2497 0.62485 2.1769 1.5924 0.92719 0.94734 1.4714 2.2776 0.56438 1.3102 0.56438 3.0436 0 1.673-0.48375 2.9831-0.4636 1.3102-1.2698 2.318-0.78609 0.98766-1.8544 1.6931-1.0683 0.68532-2.2575 1.1288-1.1691 0.44344-2.3986 0.645-1.2094 0.20157-2.3381 0.20157-0.66516 0-1.7133-0.10078-1.0481-0.0806-2.2373-0.20157-1.1892-0.12093-2.3986-0.22172-1.2094-0.0806-2.1769-0.0806h-4.7367zm7.6795-15.299q0.54423-0.0605 1.4311-0.12094 0.90703-0.0605 2.1164-0.0605 0.7861 0 1.6327 0.0605 0.86672 0.0403 1.7536 0.18141 0.40313-0.38297 0.84656-0.94735 0.44344-0.56437 0.80625-1.3102 0.36282-0.74578 0.60469-1.6528 0.24188-0.92718 0.24188-2.0559 0-1.8141-0.5039-2.9831-0.50392-1.1892-1.3908-1.8544-0.86671-0.68532-2.0559-0.94735-1.1892-0.28218-2.5598-0.28218-0.82642 0-1.5924 0.0806-0.74577 0.0605-1.3303 0.14109zm0 14.432q1.1086 0.22172 1.7738 0.34266 0.66517 0.12094 1.1892 0.18141 0.52406 0.0605 1.0481 0.0806 0.52406 0 1.3706 0 0.66515 0 1.3303-0.0403 0.68531-0.0605 1.3102-0.16125 0.645-0.12094 1.1691-0.26203 0.54423-0.16125 0.92719-0.36282 0.34266-0.42328 0.62485-0.86671 0.30234-0.44344 0.52406-1.0078 0.22171-0.58453 0.34265-1.3303 0.1411-0.74578 0.1411-1.7738 0-1.3303-0.4636-2.58-0.44344-1.2698-1.3706-2.2373-0.92719-0.98766-2.3381-1.5722-1.4109-0.58453-3.3056-0.58453-1.7536 0-2.7412 0.0403-0.9675 0.0403-1.5319 0.10079z"/>
  <path id="path169352" style="font-variant-ligatures:none" d="m384.83 472.83q0.0403-2.2172 0.76594-4.2127 0.74579-1.9955 2.0761-3.5072 1.3505-1.5117 3.2452-2.3986 1.8947-0.88687 4.2731-0.88687 1.935 0 3.2855 0.60468 1.3706 0.58454 2.2373 1.6931 0.86672 1.0884 1.2497 2.6405 0.38298 1.5319 0.34267 3.4266-0.0201 0.28219-0.0403 0.66516 0 0.36281-0.0201 0.70547-0.0201 0.38296-0.0605 0.80625h-13.162q-0.0402 1.7334 0.26203 2.9831 0.3225 1.2295 0.84657 2.0962 0.54421 0.86672 1.2497 1.3908 0.70547 0.52406 1.4311 0.80625 0.74579 0.28219 1.4714 0.38297 0.72563 0.0806 1.3303 0.0806 0.88687-0.22172 1.8544-0.48375 0.84656-0.22172 1.8745-0.54422 1.028-0.3225 2.0962-0.72563l0.68531 1.7334q-1.1086 0.62484-2.0761 1.1489-0.9675 0.5039-1.8745 0.92718-0.88687 0.40313-1.7334 0.70547-0.8264 0.3225-1.673 0.54422-2.58 0-4.4747-0.72562-1.8745-0.72563-3.1242-2.0761-1.2295-1.3706-1.8141-3.3258-0.58459-1.9753-0.52413-4.4545zm4.1925-2.5598q1.9955-0.0202 3.4064-0.0806 1.4109-0.0605 2.3381-0.12094 0.94734-0.0605 1.4916-0.10078 0.54421-0.0605 0.78609-0.10078 0.34266-0.0403 0.52406-0.52406 0.20156-0.48375 0.20156-1.0078 0-1.3706-0.46358-2.318-0.4636-0.94735-1.2698-1.4512-0.80625-0.50391-1.8947-0.52407-1.0683-0.0403-2.2776 0.40313-0.24187 0.0806-0.70548 0.42328-0.44343 0.34266-0.90702 1.028-0.4636 0.68531-0.82641 1.7738-0.36282 1.0683-0.40313 2.6002z"/>
  <path id="path169354" style="font-variant-ligatures:none" d="m407.47 476.28 2.0962 0.0403 0.76593 2.197q0.22172 0.60469 0.40313 0.7861 0.1814 0.1814 0.34265 0.28218 0.66516 0.30235 1.3102 0.48375 0.645 0.18141 1.3102 0.30235 0.66516 0.10078 1.3706 0.14109 0.70547 0.0202 1.4714 0.0202 0.46359 0 0.84656-0.18141 0.38296-0.20156 0.645-0.52406 0.26203-0.34266 0.40313-0.74578 0.14108-0.42328 0.14108-0.88688 0-1.0481-0.5039-1.7334-0.48375-0.68531-1.29-1.1489-0.80625-0.4636-1.8544-0.7861-1.028-0.3225-2.0962-0.62484-1.0683-0.30234-2.1164-0.68531-1.028-0.38297-1.8342-0.94735-0.80624-0.58453-1.3102-1.4311-0.48375-0.86672-0.48375-2.1567 0-1.5722 0.50392-2.8219 0.52406-1.2698 1.5117-2.1567 1.0078-0.88688 2.4591-1.3505 1.4714-0.48375 3.3661-0.48375 1.673 0 3.225 0.16125 1.552 0.14109 3.2048 0.36281l-0.52407 5.422h-1.9753l-0.60469-1.5117q-0.22171-0.58453-0.44343-0.90703-0.22172-0.34265-0.645-0.52406-0.84657-0.36281-1.9955-0.58453-1.1288-0.24188-2.2575-0.24188-0.48374 0-0.88687 0.26204-0.40312 0.26203-0.68531 0.68531-0.26204 0.40312-0.42329 0.90703-0.14109 0.48375-0.14109 0.9675 0 0.98766 0.48375 1.6327 0.5039 0.645 1.3102 1.0884 0.80625 0.42328 1.8342 0.72563 1.028 0.28219 2.0962 0.58453 1.0683 0.30234 2.0962 0.68531 1.028 0.36281 1.8342 0.9675 0.80625 0.58453 1.29 1.4714 0.50391 0.86672 0.50391 2.1769 0 1.8947-0.66516 3.225-0.645 1.3102-1.7738 2.1567-1.1288 0.82641-2.6606 1.2094-1.5117 0.38297-3.225 0.38297-0.76593 0-1.7133-0.1411-0.94735-0.14109-1.9148-0.36281-0.9675-0.24188-1.8745-0.54422-0.90704-0.3225-1.6125-0.66516z"/>
  <path id="path169356" style="font-variant-ligatures:none" d="m428.39 468.5q0-1.0884-0.22173-1.6931-0.22171-0.60469-0.62484-0.92719-0.40312-0.3225-0.94735-0.46359-0.54421-0.14109-1.2094-0.30234v-1.4512q0.98766-0.16125 1.8342-0.36282 0.84657-0.22172 1.6326-0.48375 0.80625-0.28218 1.5722-0.62484 0.76594-0.34266 1.5924-0.76594l0.76594 0.40313q-0.0605 0.76593-0.10075 1.552-0.0201 0.78609-0.0605 1.6931 0.56437-0.38297 1.3706-0.94734 0.80625-0.56438 1.6931-1.0683 0.90702-0.50391 1.8342-0.86672 0.92719-0.36281 1.7536-0.36281 0.36281 0 1.1489 0.10079 0.7861 0.0806 1.7334 0.46359 0.94735 0.36281 1.935 1.1288 1.0078 0.74578 1.8141 2.0761 0.645 1.0884 1.1489 2.6002 0.5039 1.4916 0.5039 3.5878 0 2.58-0.62484 4.4545-0.60468 1.8544-1.5924 3.1444-0.9675 1.29-2.1769 2.0761-1.1892 0.76594-2.3784 1.1892-1.1691 0.42328-2.197 0.54422-1.028 0.14109-1.6327 0.14109-0.86671 0-2.0358-0.16125-1.1489-0.1411-2.2978-0.34266v7.0144l4.515 1.1288v1.6528h-11.207v-1.6528q0.78609-0.22171 1.2698-0.46359 0.48375-0.22172 0.74579-0.62484 0.26202-0.38297 0.34265-1.028 0.10075-0.645 0.10075-1.7133zm4.2328 10.864q1.1489 0.58454 2.5397 1.0078 1.4109 0.40312 2.8823 0.40312 1.4311 0 2.4188-0.56437 1.0078-0.58453 1.6125-1.5924 0.62485-1.028 0.88688-2.3986 0.28218-1.3706 0.28218-2.9428 0-1.673-0.34265-3.1645-0.3225-1.4916-0.92718-2.6002-0.58454-1.1288-1.4109-1.7738-0.80625-0.66516-1.7738-0.66516-0.72563 0-1.6327 0.26203-0.90703 0.24188-1.7939 0.58454-0.86673 0.34265-1.6125 0.70546-0.72563 0.36282-1.1288 0.58454z"/>
  <path id="path169358" style="font-variant-ligatures:none" d="m451.17 473.23q0-2.6203 0.86671-4.7166 0.86673-2.1164 2.318-3.5878 1.4714-1.4916 3.3862-2.2978 1.9148-0.80625 4.0111-0.80625 2.2777 0 4.0716 0.58453t3.0234 1.7939q1.2497 1.2094 1.8947 3.0436 0.645 1.8141 0.645 4.2933 0 2.6808-0.80625 4.8577-0.80625 2.1567-2.197 3.6886t-3.2452 2.3583q-1.8544 0.82641-3.9708 0.82641-2.0962 0-3.9305-0.60469-1.8141-0.62484-3.1645-1.8544-1.3505-1.2497-2.1366-3.1242-0.76594-1.8947-0.76594-4.4545zm4.7166-0.98765q0 1.8745 0.28219 3.5475 0.30233 1.6528 1.028 2.8823 0.72562 1.2094 1.9552 1.8745 1.2295 0.66516 3.1242 0.54422 1.3102-0.0806 2.1567-0.8264 0.86671-0.76594 1.3505-1.935 0.50391-1.1691 0.68531-2.6002 0.20157-1.4311 0.20157-2.8622 0-1.8745-0.30234-3.5273-0.28219-1.6528-1.0078-2.842-0.72563-1.2094-1.9552-1.8544-1.2295-0.66515-3.1041-0.56437-1.3303 0.0806-2.1769 0.78609-0.84657 0.70547-1.3505 1.8342-0.50392 1.1288-0.70548 2.58-0.1814 1.4311-0.1814 2.963z"/>
  <path id="path169360" style="font-variant-ligatures:none" d="m474.45 481.18q1.0481-0.28219 1.6931-0.52407 0.645-0.24187 0.98767-0.66515 0.36281-0.42328 0.46358-1.1288 0.12088-0.70547 0.12088-1.9148v-20.055q0-1.0884-0.28219-1.673-0.28219-0.60469-0.76594-0.92719-0.46358-0.3225-1.0683-0.46359-0.60469-0.1411-1.2698-0.30235v-1.4714q0.90704-0.18141 1.5924-0.3225 0.68531-0.1411 1.2295-0.28219 0.56438-0.1411 1.028-0.28219 0.46359-0.16125 0.94734-0.36281 0.50391-0.20156 1.0683-0.4636 0.56438-0.28218 1.3102-0.66515l0.74579 0.42328q-0.1411 1.4109-0.22172 3.1847-0.0605 1.7536-0.0806 3.6886-0.0201 1.9148-0.0201 3.8902 0.0201 1.9753 0.0201 3.8297v15.379l3.225 1.1086v1.6528h-10.723zm8.647-8.9695q0.46358-0.30235 1.0884-0.84657 0.62483-0.56437 1.29-1.2497 0.68532-0.68532 1.3303-1.4109 0.66515-0.74578 1.1691-1.4109 0.52406-0.66516 0.84656-1.1892 0.3225-0.52406 0.3225-0.76594 0-0.30234-0.24187-0.52406-0.22173-0.24187-0.56438-0.40312-0.34266-0.18141-0.76594-0.28219-0.42328-0.12094-0.7861-0.20156v-1.6528h10.501v1.6528q-1.0683 0.1814-1.7536 0.34265-0.68532 0.1411-1.1288 0.3225-0.44344 0.16125-0.74578 0.38297-0.28218 0.20156-0.54422 0.4636-0.62484 0.62484-1.3303 1.4512-0.68531 0.8264-1.4311 1.6931-0.72563 0.86672-1.4916 1.7133-0.74579 0.82641-1.4714 1.4714 1.5924 1.8342 3.1444 3.4669 0.645 0.70547 1.3505 1.4311 0.70546 0.70547 1.3706 1.3706 0.68531 0.66516 1.3102 1.2295 0.645 0.56438 1.1489 0.92719 0.40313 0.28219 1.028 0.56438 0.62485 0.26203 1.1288 0.42328v1.6528l-5.6639 0.44344-2.6002-2.9227z"/>
  <path id="path169362" style="font-variant-ligatures:none" d="m499.32 472.83q0.0403-2.2172 0.76594-4.2127 0.74579-1.9955 2.0761-3.5072 1.3505-1.5117 3.2452-2.3986 1.8947-0.88687 4.2731-0.88687 1.935 0 3.2855 0.60468 1.3706 0.58454 2.2373 1.6931 0.86672 1.0884 1.2497 2.6405 0.38298 1.5319 0.34267 3.4266-0.0201 0.28219-0.0403 0.66516 0 0.36281-0.0201 0.70547-0.0201 0.38296-0.0605 0.80625h-13.162q-0.0402 1.7334 0.26203 2.9831 0.3225 1.2295 0.84657 2.0962 0.54421 0.86672 1.2497 1.3908 0.70547 0.52406 1.4311 0.80625 0.74579 0.28219 1.4714 0.38297 0.72563 0.0806 1.3303 0.0806 0.88687-0.22172 1.8544-0.48375 0.84656-0.22172 1.8745-0.54422 1.028-0.3225 2.0962-0.72563l0.68531 1.7334q-1.1086 0.62484-2.0761 1.1489-0.9675 0.5039-1.8745 0.92718-0.88687 0.40313-1.7334 0.70547-0.8264 0.3225-1.673 0.54422-2.58 0-4.4747-0.72562-1.8745-0.72563-3.1242-2.0761-1.2295-1.3706-1.8141-3.3258-0.58459-1.9753-0.52413-4.4545zm4.1925-2.5598q1.9955-0.0202 3.4064-0.0806 1.4109-0.0605 2.3381-0.12094 0.94734-0.0605 1.4916-0.10078 0.54421-0.0605 0.78609-0.10078 0.34266-0.0403 0.52406-0.52406 0.20156-0.48375 0.20156-1.0078 0-1.3706-0.46358-2.318-0.4636-0.94735-1.2698-1.4512-0.80625-0.50391-1.8947-0.52407-1.0683-0.0403-2.2776 0.40313-0.24188 0.0806-0.70548 0.42328-0.44343 0.34266-0.90702 1.028-0.4636 0.68531-0.82641 1.7738-0.36282 1.0683-0.40313 2.6002z"/>
  <path id="path169364" style="font-variant-ligatures:none" d="m536.33 472.77 2.2978 0.0403 0.84656 4.6359q0.12088 0.44344 0.24188 0.72563 0.12087 0.26203 0.24187 0.42328 0.1411 0.16125 0.26204 0.26203 0.12087 0.0806 0.22171 0.14109 0.44344 0.22172 1.2295 0.50391 0.78609 0.26203 1.7536 0.5039 0.9675 0.24188 2.0156 0.40313t2.0559 0.16125q0.86673 0 1.5722-0.20156 0.70547-0.20157 1.2698-0.50391 0.56437-0.30234 0.98765-0.66516 0.44343-0.38296 0.7861-0.72562 0.10075-0.18141 0.22171-0.46359 0.12087-0.30235 0.22173-0.645 0.12087-0.36282 0.20156-0.76594 0.0806-0.40313 0.0806-0.7861 0-1.5722-0.72562-2.6203-0.72563-1.0683-1.935-1.8141-1.1892-0.74578-2.7211-1.29-1.5117-0.56438-3.1041-1.1288-1.5923-0.56438-3.1242-1.2497-1.5117-0.70547-2.7211-1.7334-1.1892-1.028-1.9148-2.4792-0.72563-1.4714-0.72563-3.608 0-1.4916 0.48375-2.6808t1.3303-2.1164q0.84656-0.92719 1.9753-1.5923 1.1489-0.66516 2.4591-1.0884 1.3303-0.42328 2.7614-0.62485 1.4311-0.20156 2.8622-0.20156 1.1691 0 2.0761 0.10079 0.90702 0.0806 1.7536 0.24188 0.84656 0.14109 1.7536 0.3225 0.90703 0.1814 2.0559 0.34265l-0.58454 7.9819h-2.16l-0.80625-3.3661q-0.10075-0.4636-0.24188-0.76594-0.12087-0.3225-0.30235-0.54422-0.1814-0.24188-0.40312-0.38297-0.22171-0.16125-0.5039-0.30234-0.84656-0.34266-2.0358-0.60469-1.1691-0.26203-2.6203-0.26203-1.2094 0-2.2172 0.16125-0.98765 0.14109-1.6931 0.54422-0.22171 0.28218-0.54421 0.56437-0.30236 0.28219-0.58454 0.68531-0.26203 0.40313-0.46359 0.98766-0.18141 0.56438-0.18141 1.4109 0 1.6528 0.72562 2.7614 0.72563 1.0884 1.9148 1.8544 1.1892 0.74578 2.7009 1.2698 1.5117 0.52407 3.0839 1.0481 1.5924 0.52406 3.1041 1.1691 1.5117 0.62484 2.7009 1.5722 1.1892 0.94734 1.9148 2.3381 0.72563 1.3908 0.72563 3.4266 0 2.58-1.028 4.3538-1.028 1.7536-2.7816 2.8219t-4.0716 1.5319q-2.2978 0.46359-4.8576 0.46359-1.028 0-2.1769-0.20156-1.1288-0.20157-2.2777-0.54422-1.1288-0.34266-2.2172-0.7861-1.0884-0.46359-2.0559-0.9675z"/>
  <path id="path169366" style="font-variant-ligatures:none" d="m563.44 468.5q0-1.0884-0.22173-1.6931-0.22171-0.60469-0.62483-0.92719-0.40313-0.3225-0.94735-0.46359-0.54421-0.14109-1.2094-0.30234v-1.4512q0.98767-0.16125 1.8342-0.36282 0.84656-0.22172 1.6326-0.48375 0.80625-0.28218 1.5722-0.62484 0.76594-0.34266 1.5924-0.76594l0.76594 0.40313q-0.0605 0.76593-0.10075 1.552-0.0201 0.78609-0.0605 1.6931 0.56438-0.38297 1.3706-0.94734 0.80625-0.56438 1.6931-1.0683 0.90703-0.50391 1.8342-0.86672 0.92719-0.36281 1.7536-0.36281 0.36282 0 1.1489 0.10079 0.7861 0.0806 1.7334 0.46359 0.94735 0.36281 1.935 1.1288 1.0078 0.74578 1.8141 2.0761 0.645 1.0884 1.1489 2.6002 0.5039 1.4916 0.5039 3.5878 0 2.58-0.62484 4.4545-0.60469 1.8544-1.5924 3.1444-0.9675 1.29-2.1769 2.0761-1.1892 0.76594-2.3784 1.1892-1.1691 0.42328-2.197 0.54422-1.028 0.14109-1.6327 0.14109-0.86671 0-2.0358-0.16125-1.1489-0.1411-2.2978-0.34266v7.0144l4.515 1.1288v1.6528h-11.207v-1.6528q0.78608-0.22171 1.2698-0.46359 0.48375-0.22172 0.74579-0.62484 0.26203-0.38297 0.34265-1.028 0.10079-0.645 0.10079-1.7133zm4.2328 10.864q1.1489 0.58454 2.5397 1.0078 1.4109 0.40312 2.8823 0.40312 1.4311 0 2.4188-0.56437 1.0078-0.58453 1.6125-1.5924 0.62485-1.028 0.88687-2.3986 0.28219-1.3706 0.28219-2.9428 0-1.673-0.34265-3.1645-0.3225-1.4916-0.92719-2.6002-0.58454-1.1288-1.4109-1.7738-0.80625-0.66516-1.7737-0.66516-0.72563 0-1.6327 0.26203-0.90702 0.24188-1.7939 0.58454-0.86672 0.34265-1.6125 0.70546-0.72562 0.36282-1.1288 0.58454z"/>
  <path id="path169368" style="font-variant-ligatures:none" d="m586.48 477.71q0-0.84656 0.1411-1.552 0.16125-0.70547 0.60468-1.3102 0.46359-0.62484 1.29-1.1691 0.84656-0.56437 2.197-1.1086 1.3706-0.54422 3.3258-1.1086 1.9552-0.56437 4.6762-1.2094v-3.0839q0-0.56437-0.0806-1.0683-0.0605-0.52406-0.42329-0.90703-0.36281-0.40312-1.1288-0.645-0.74577-0.26203-2.0962-0.28219-0.9675 0-1.6125 0.28219-0.645 0.26203-1.1086 0.82641-0.44344 0.56437-0.7861 1.4109-0.3225 0.82641-0.66515 1.935h-3.225l0.42327-4.1522q0.66517-0.28219 1.4512-0.60469 0.7861-0.3225 1.5924-0.62484 0.8264-0.30235 1.6326-0.56438 0.80625-0.28219 1.4916-0.48375 0.70548-0.22172 1.2497-0.34266 0.54423-0.12093 0.84656-0.12093 1.8141 0 3.0638 0.28218 1.2699 0.28219 2.0761 0.9675 0.80625 0.66516 1.1691 1.7939 0.36281 1.1086 0.36281 2.7614v11.59q0 0.54422 0.48375 0.78609 0.48375 0.24188 1.0481 0.3225 0.58452 0.0806 1.0683 0.0806 0.48375 0 0.48375 0.0403v1.673q-0.40313 0.16125-0.94734 0.36281-0.52406 0.18141-1.1288 0.34266-0.60469 0.16125-1.2295 0.28219-0.60468 0.12093-1.1691 0.12093-1.4311 0-2.0358-0.74578-0.60469-0.74578-0.60469-2.2776-0.9675 0.80625-1.7133 1.3908-0.72562 0.56437-1.4311 0.92719-0.68531 0.36281-1.4714 0.52406-0.78608 0.1814-1.8342 0.1814t-2.1164-0.3225-1.935-0.98765q-0.84657-0.68531-1.3908-1.7334-0.54422-1.0481-0.54422-2.4792zm4.4344-0.5039q0 0.80625 0.28219 1.3908 0.30235 0.56437 0.80625 0.94734 0.50391 0.36281 1.1892 0.54422 0.70546 0.16125 1.4916 0.16125 1.0884 0 2.1366-0.56438 1.0481-0.58453 1.8947-1.3908v-5.9864q-0.72563 0.26203-1.5924 0.48375-0.86672 0.20156-1.7334 0.44343-0.86671 0.22172-1.673 0.52407-0.80625 0.30234-1.4311 0.76593-0.62484 0.44344-1.0078 1.1086-0.36281 0.645-0.36281 1.5722z"/>
  <path id="path169370" style="font-variant-ligatures:none" d="m608.39 473.54q0-2.8017 0.92719-4.9786 0.92718-2.197 2.4792-3.6886 1.5722-1.4916 3.608-2.2575 2.0559-0.78609 4.2731-0.78609 1.4109 0 2.963 0.28218 1.552 0.28219 2.963 0.84657-0.0201 0.14109-0.0806 0.645-0.0605 0.48375-0.1411 1.1691-0.0806 0.66516-0.1814 1.4109-0.0806 0.74578-0.16125 1.3908-0.0806 0.62484-0.1411 1.0481-0.0402 0.40313-0.0605 0.40313h-1.9q-0.26204-1.0884-0.44344-1.7939-0.16125-0.70547-0.28218-1.1288-0.12088-0.42328-0.22173-0.60469-0.0806-0.1814-0.20156-0.22171-0.98765-0.22172-1.9552-0.34266-0.9675-0.14109-2.0156-0.14109-0.66516 0-1.4109 0.12093-0.74578 0.10079-1.4512 0.30235-0.40312 0.26203-0.74578 0.74578-0.34265 0.48375-0.62484 1.0683-0.28219 0.58453-0.50391 1.2295-0.20157 0.645-0.36282 1.2698-0.14108 0.60469-0.22171 1.1288-0.0605 0.52407-0.0605 0.84657 0 1.6125 0.36281 3.1041 0.38298 1.4916 1.1892 2.6405 0.8264 1.1489 2.1366 1.8342 1.3102 0.68531 3.2048 0.68531 0.30235 0 0.98766-0.12094 0.68531-0.14109 1.5117-0.3225 0.84657-0.20156 1.6931-0.42328 0.84656-0.24187 1.4916-0.46359l0.66516 1.6931q-1.1288 0.68531-2.2978 1.2497-1.1489 0.56437-2.1366 0.98766-0.98766 0.40312-1.6931 0.62484-0.68531 0.24187-0.84656 0.24187-2.1769 0-4.0716-0.60468-1.8745-0.62485-3.2653-1.8342-1.3908-1.2295-2.197-3.0436-0.78609-1.8141-0.78609-4.2126z"/>
  <path id="path169372" style="font-variant-ligatures:none" d="m629.13 472.83q0.0403-2.2172 0.76594-4.2127 0.74579-1.9955 2.0761-3.5072 1.3505-1.5117 3.2452-2.3986 1.8947-0.88687 4.2731-0.88687 1.935 0 3.2855 0.60468 1.3706 0.58454 2.2373 1.6931 0.86672 1.0884 1.2497 2.6405 0.38298 1.5319 0.34267 3.4266-0.0201 0.28219-0.0403 0.66516 0 0.36281-0.0201 0.70547-0.0201 0.38296-0.0605 0.80625h-13.162q-0.0403 1.7334 0.26203 2.9831 0.3225 1.2295 0.84657 2.0962 0.54414 0.86672 1.2496 1.3908 0.70546 0.52406 1.4311 0.80625 0.74579 0.28219 1.4714 0.38297 0.72562 0.0806 1.3303 0.0806 0.88688-0.22172 1.8544-0.48375 0.84656-0.22172 1.8745-0.54422 1.028-0.3225 2.0962-0.72563l0.68531 1.7334q-1.1086 0.62484-2.0761 1.1489-0.9675 0.5039-1.8745 0.92718-0.88688 0.40313-1.7334 0.70547-0.8264 0.3225-1.673 0.54422-2.58 0-4.4747-0.72562-1.8745-0.72563-3.1242-2.0761-1.2295-1.3706-1.8141-3.3258-0.58452-1.9753-0.52406-4.4545zm4.1925-2.5598q1.9955-0.0202 3.4064-0.0806 1.4109-0.0605 2.3381-0.12094 0.94734-0.0605 1.4916-0.10078 0.54421-0.0605 0.78609-0.10078 0.34266-0.0403 0.52406-0.52406 0.20156-0.48375 0.20156-1.0078 0-1.3706-0.46358-2.318-0.4636-0.94735-1.2698-1.4512-0.80625-0.50391-1.8947-0.52407-1.0683-0.0403-2.2776 0.40313-0.24188 0.0806-0.70548 0.42328-0.44343 0.34266-0.90702 1.028-0.4636 0.68531-0.82641 1.7738-0.36282 1.0683-0.40313 2.6002z"/>
  <path id="path169374" style="font-variant-ligatures:none" d="m651.76 476.28 2.0962 0.0403 0.76594 2.197q0.22171 0.60469 0.40312 0.7861 0.1814 0.1814 0.34265 0.28218 0.66516 0.30235 1.3102 0.48375 0.645 0.18141 1.3102 0.30235 0.66517 0.10078 1.3706 0.14109 0.70547 0.0202 1.4714 0.0202 0.46359 0 0.84656-0.18141 0.38296-0.20156 0.645-0.52406 0.26203-0.34266 0.40313-0.74578 0.14108-0.42328 0.14108-0.88688 0-1.0481-0.50389-1.7334-0.48375-0.68531-1.29-1.1489-0.80626-0.4636-1.8544-0.7861-1.028-0.3225-2.0962-0.62484-1.0683-0.30234-2.1164-0.68531-1.028-0.38297-1.8342-0.94735-0.80626-0.58453-1.3102-1.4311-0.48375-0.86672-0.48375-2.1567 0-1.5722 0.50391-2.8219 0.52407-1.2698 1.5117-2.1567 1.0078-0.88688 2.4591-1.3505 1.4714-0.48375 3.3661-0.48375 1.673 0 3.225 0.16125 1.552 0.14109 3.2048 0.36281l-0.52407 5.422h-1.9753l-0.60469-1.5117q-0.22171-0.58453-0.44343-0.90703-0.22171-0.34265-0.645-0.52406-0.84657-0.36281-1.9955-0.58453-1.1287-0.24188-2.2575-0.24188-0.48376 0-0.88688 0.26204-0.40313 0.26203-0.68531 0.68531-0.26204 0.40312-0.42329 0.90703-0.14109 0.48375-0.14109 0.9675 0 0.98766 0.48375 1.6327 0.5039 0.645 1.3102 1.0884 0.80625 0.42328 1.8342 0.72563 1.028 0.28219 2.0962 0.58453 1.0683 0.30234 2.0962 0.68531 1.028 0.36281 1.8342 0.9675 0.80625 0.58453 1.29 1.4714 0.50391 0.86672 0.50391 2.1769 0 1.8947-0.66516 3.225-0.645 1.3102-1.7738 2.1567-1.1288 0.82641-2.6606 1.2094-1.5117 0.38297-3.225 0.38297-0.76593 0-1.7133-0.1411-0.94735-0.14109-1.9148-0.36281-0.9675-0.24188-1.8745-0.54422-0.90703-0.3225-1.6125-0.66516z"/>
  <path id="path169377" style="font-variant-ligatures:none" d="m457.48 430.86c3.1104 1.0368 6.2208 1.5552 9.8496 1.5552 15.552 0 28.253-12.701 28.253-28.253v-127.53h-38.102zm61.171-87.35c10.109 3.888 17.107 22.291 17.107 44.582s-8.5536 40.954-17.107 44.582c25.402 0 54.173-17.626 54.173-44.582 0-26.957-28.771-44.582-54.173-44.582zm54.173-33.437c0-20.477-28.771-33.696-54.173-33.696 10.109 2.8512 17.107 16.848 17.107 33.696 0 16.589-8.5536 30.586-17.107 33.437 25.402 0 54.173-13.219 54.173-33.437z"/>
 </g>

</g>
</svg>
